<svg id="editor_docx_ic_256" xmlns="http://www.w3.org/2000/svg" width="256" height="256" viewBox="0 0 256 256"><title>editor_docx_ic_256</title><rect id="padding-box" width="256" height="256" style="fill:none"/><path id="bg" d="M224,240H32a16,16,0,0,1-16-16V32A16,16,0,0,1,32,16H224a16,16,0,0,1,16,16V224A16,16,0,0,1,224,240Z" style="fill:#13bcfe"/><path id="shape" d="M240,32V224a16,16,0,0,1-16,16H204V16h20A16,16,0,0,1,240,32ZM16,32V224a16,16,0,0,0,16,16H52V16H32A16,16,0,0,0,16,32Z" style="fill:#00a6ff"/><path id="icon" d="M171.87,93.44l-19.81,71.45a1.67,1.67,0,0,1 -0.08 0.2l -0.07 0.19a3,3,0,0,1 -0.27 0.57l -0.08 0.14a5.17,5.17,0,0,1 -0.39 0.53l -0.13 0.13c -0.14 0.15 -0.3 0.29 -0.46 0.43l -0.2 0.14a4.94,4.94,0,0,1 -0.49 0.3l -0.26 0.11a3.82,3.82,0,0,1 -0.53 0.2s -0.07,0 -0.11,0l -0.21,0a4,4,0,0,1 -0.5 0.09h -0.8l -0.51 -0.09a0.51 0.51,0,0,1 -0.21,0l -0.11,0a3.28,3.28,0,0,1 -0.52 -0.2l -0.26 -0.11a4,4,0,0,1 -0.49 -0.3l -0.21 -0.14a6.14,6.14,0,0,1 -0.45 -0.43l -0.13 -0.13a3.28,3.28,0,0,1 -0.39 -0.53l -0.09 -0.14a5,5,0,0,1 -0.27 -0.57l -0.07 -0.19c0 -0.07 -0.06 -0.13 -0.08 -0.2L128,108.44,112.37,164.9a1.59,1.59,0,0,1 -0.07 0.2l -0.08 0.2a4.8,4.8,0,0,1 -0.26 0.57l -0.09 0.13a2.9,2.9,0,0,1 -0.39 0.53 0.8 0.8,0,0,1 -0.13 0.13,4.57,4.57,0,0,1 -0.45 0.43l -0.21 0.14a4,4,0,0,1 -0.49 0.3l -0.26 0.12a4.76,4.76,0,0,1 -0.53 0.19s -0.06,0 -0.1,0l -0.21,0 -0.51 0.08h -0.82l -0.51 -0.08a0.39 0.39,0,0,1 -0.21,0l -0.1,0a4.76,4.76,0,0,1 -0.53 -0.19l -0.26 -0.12a4,4,0,0,1 -0.49 -0.3l -0.2 -0.14a3.77,3.77,0,0,1 -0.46 -0.43,1.59,1.59,0,0,1 -0.13 -0.13,4.26,4.26,0,0,1 -0.39 -0.53 0.57 0.57,0,0,1 -0.08 -0.13,3.67,3.67,0,0,1 -0.27 -0.57l -0.08 -0.2c0 -0.07,0 -0.13 -0.07 -0.2L84.18,93.44a4.15,4.15,0,0,1,1.06-4.17,4.38,4.38,0,0,1,4.24-1.12,4.29,4.29,0,0,1,3.07,3.08l15.63,56.38,15.64-56.38a4.27,4.27,0,0,1,3.07-3h0.1a5,5,0,0,1, 0.66 -0.1h0.78a4.92,4.92,0,0,1, 0.67 0.1h0.09a4.3,4.3,0,0,1,3.08,3l15.6,56.39,15.64-56.38a4.35,4.35,0,0,1,5.29-2.87,4.22,4.22,0,0,1,3.08,5.08Z" style="fill:#fff"/></svg>