<svg id="editor_xott_ic_256" xmlns="http://www.w3.org/2000/svg" width="256" height="256" viewBox="0 0 256 256"><title>editor_xott_ic_256</title><rect id="padding-box" width="256" height="256" style="fill:none"/><path id="bg-secondary" d="M136,240C50.91,240,32,221.09,32,136S50.91,32,136,32,240,50.91,240,136,221.09,240,136,240Z" style="fill:#7edcff"/><path id="bg" d="M120,224C34.91,224,16,205.09,16,120S34.91,16,120,16,224,34.91,224,120,205.09,224,120,224Z" style="fill:#13bcfe"/><path id="shape" d="M27.35,48h185.3C199.3,23.07,172,16,120,16S40.7,23.07,27.35,48Z" style="fill:#00a6ff"/><path id="icon" d="M168,156a4,4,0,0,1-4,4H76a4,4,0,0,1,0-8h88A4,4,0,0,1,168,156Zm-4-36H76a4,4,0,0,0,0,8h88a4,4,0,0,0,0-8ZM76,96h88a4,4,0,0,0,0-8H76a4,4,0,0,0,0,8Z" style="fill:#fff"/></svg>