<svg id="editor_odt_ic_256" xmlns="http://www.w3.org/2000/svg" width="256" height="256" viewBox="0 0 256 256"><title>editor_odt_ic_256</title><rect id="padding-box" width="256" height="256" style="fill:none"/><path id="bg" d="M224,240H32a16,16,0,0,1-16-16V32A16,16,0,0,1,32,16H224a16,16,0,0,1,16,16V224A16,16,0,0,1,224,240Z" style="fill:#13bcfe"/><path id="shape" d="M240,32V224a16,16,0,0,1-16,16H204V16h20A16,16,0,0,1,240,32ZM16,32V224a16,16,0,0,0,16,16H52V16H32A16,16,0,0,0,16,32Z" style="fill:#00a6ff"/><path id="icon" d="M196,108.5a4.49,4.49,0,0,1-4.5,4.5H183v34.5a4.5,4.5,0,0,1-9,0V113h-8.5a4.5,4.5,0,0,1,0-9h26A4.49,4.49,0,0,1,196,108.5ZM150,123v10a19,19,0,0,1-19,19H115a3,3,0,0,1-3-3V107a3,3,0,0,1,3-3h16A19,19,0,0,1,150,123Zm-9,0a10,10,0,0,0-10-10h-9a1,1,0,0,0-1,1v28a1,1,0,0,0,1,1h9a10,10,0,0,0,10-10Zm-41,1v8a20,20,0,0,1-40,0v-8a20,20,0,0,1,40,0Zm-9,0a11,11,0,0,0-22,0v8a11,11,0,0,0,22,0Z" style="fill:#fff"/></svg>