<svg id="editor_rtf_ic_256" xmlns="http://www.w3.org/2000/svg" width="256" height="256" viewBox="0 0 256 256"><title>editor_rtf_ic_256</title><rect id="padding-box" width="256" height="256" style="fill:none"/><path id="bg" d="M224,240H32a16,16,0,0,1-16-16V32A16,16,0,0,1,32,16H224a16,16,0,0,1,16,16V224a16,16,0,0,1-16,16" style="fill:#a5a5a5"/><path id="shape" d="M240,32V52H16V32A16,16,0,0,1,32,16H224A16,16,0,0,1,240,32ZM16,224a16,16,0,0,0,16,16H224a16,16,0,0,0,16-16V204H16Z" style="fill:#949494"/><path id="icon" d="M131,112v36a4,4,0,0,1-8,0V112H113a4,4,0,1,1,0-8h28.1a4,4,0,0,1,0,8ZM82.15,132H76v16a4,4,0,0,1-8,0V108a4,4,0,0,1,4-4H86a14,14,0,0,1,4.88,27.13l8.64,15a4,4,0,1,1-6.93,4ZM76,124H86a6,6,0,0,0,0-12H76Zm88-12v12h12a4,4,0,0,1,0,8H164v16a4,4,0,0,1-8,0V108a4,4,0,0,1,4-4h24a4,4,0,0,1,0,8Z" style="fill:#fff"/></svg>