<svg id="editor_xods_ic_256" xmlns="http://www.w3.org/2000/svg" width="256" height="256" viewBox="0 0 256 256"><title>editor_xods_ic_256</title><rect id="padding-box" width="256" height="256" style="fill:none"/><path id="bg" d="M240,128.15c0,11.85,0,7.85,0,19.85l-92,92c-8,0-13.87,0-11.45 -0.05 -0.69,0 -0.55 0.05-8.55 0.05-3.52,0-7.87,0-8.55,0a281.79,281.79,0,0,1-48.4-4.76,83,83,0,0,1-21.55-8c-14-8.23-21.93-19.58-27.2-36.5a176.81,176.81,0,0,1-4.1-20c -0.14 -0.76-2-22.68-2.2-42.53v -0.29c0.23-19.86,2.06-41.78,2.21-42.55a179,179,0,0,1,4.09-20C27.57,48.4,35.51,37.05,49.48,28.83A83.37,83.37,0,0,1,71,20.8a250.45,250.45,0,0,1,48.4-4.75L128,16c3.54,0,7.87,0,8.55,0A251.25,251.25,0,0,1,185,20.8a83.43,83.43,0,0,1,21.55,8c14,8.22,21.9,19.57,27.18,36.49a176.81,176.81,0,0,1,4.1,20c0.14 0.78,2,22.7,2.19,42.54v0.3Z" style="fill:#04d1b6"/><path id="shape" d="M226.2,48H29.8c8.14-13,19.2-20.62,35.52-25.69a176.81,176.81,0,0,1,20-4.1c0.76 -0.14,22.68-2,42.53-2.17h0.29c19.86 0.2,41.78,2,42.55,2.18a176.78,176.78,0,0,1,20,4.09C207,27.34,218.06,34.94,226.2,48ZM128.28,240h -0.65c-12.17 -0.14-25.06 -0.88-33.38-1.46-7.07 -0.7-14.8-1.7-22.36-3.18l-1.09 -0.22c-3 -0.77-5.9-1.62-8.72-2.54a58.86,58.86,0,0,1-28.91-19.74l -0.2 -0.24c -0.53 -0.7-1-1.49-1.54-2.23s-1.06-1.55-1.56-2.37H180l-31.3,31.3C142.27,239.64,135.17,239.92,128.28,240Z" style="fill:#07bea2"/><path id="fold" d="M222.63,149.51c0.45 -0.08,7.62 -0.92,17.36-1.51,0,0-92,92-92,92a270.65,270.65,0,0,1,4.13-32.72,91.34,91.34,0,0,1,8.78-23.57c9-15.28,21.37-24,39.88-29.72A193.66,193.66,0,0,1,222.63,149.51Z" style="fill:#66ebd1"/><path id="icon" d="M164,88H92a4,4,0,0,0-4,4v64a4,4,0,0,0,4,4H128a4,4,0,0,0,4-4V128h32a4,4,0,0,0,4-4V92.05a4,4,0,0,0-4-4Zm-40,64H96V128h28Zm0-32H96V96h28Zm36,0H132V96h28Z" style="fill:#fff"/></svg>