<svg id="editor_doc_ic_256" xmlns="http://www.w3.org/2000/svg" width="256" height="256" viewBox="0 0 256 256"><title>editor_doc_ic_256</title><rect id="padding-box" width="256" height="256" style="fill:none"/><path id="bg" d="M224,240H32a16,16,0,0,1-16-16V32A16,16,0,0,1,32,16H224a16,16,0,0,1,16,16V224A16,16,0,0,1,224,240Z" style="fill:#449bf9"/><path id="shape" d="M240,32V224a16,16,0,0,1-16,16H204V16h20A16,16,0,0,1,240,32ZM16,32V224a16,16,0,0,0,16,16H52V16H32A16,16,0,0,0,16,32Z" style="fill:#3f87f3"/><path id="icon" d="M176,92h-3l-20,73c -0.45 0.4 -0.54 0.6-1,1 -0.18 0.52 -0.22 0.57,0,1 -0.41 -0.23 -0.57 -0.08-1,0a0.9 0.9,0,0,0,0,1c -0.55 -0.44 -0.64 -0.4-1,0a1.62,1.62,0,0,0-1,0h-1a1.86,1.86,0,0,0-1,0c -0.44 -0.4 -0.53 -0.44-1,0, 0.2 -0.58,0 -0.68,0-1 -0.51 -0.08 -0.67 -0.23-1,0a1.43,1.43,0,0,0,0-1,5.55,5.55,0,0,1-1-1q0.19 -0.08-16-59l-16,59a5,5,0,0,1-1,1,1.62,1.62,0,0,0,0,1c -0.32 -0.23 -0.48 -0.08-1,0,0, 0.32 -0.19 0.42,0,1 -0.45 -0.44 -0.54 -0.4-1,0a1.58,1.58,0,0,0-1,0h-1a1.89,1.89,0,0,0-1,0c -0.35 -0.4 -0.45 -0.44-1,0a0.86 0.86,0,0,0,0-1c -0.42 -0.08 -0.57 -0.23-1,0, 0.24 -0.43 0.19 -0.47,0-1 -0.44 -0.4 -0.53 -0.6-1-1q0.28 -0.08-20-73H79c-2 -0.18-4-1.2-4-4a4.27,4.27,0,0,1,4-4H95a5.21,5.21,0,0,1,5,4c -0.43,2.8-2.42,3.82-5,4H93l15,55,16-58c0.09-2,1.31-3.12,3-4a4.5,4.5,0,0,1,2,0c1.77 0.88,3,2,3,4l16,58,15-55h-3c-2.58 -0.18-4.57-1.2-5-4a5.21,5.21,0,0,1,5-4h16a4.27,4.27,0,0,1,4,4C180,90.8,178,91.82,176,92Z" style="fill:#fff"/></svg>