<svg id="editor_xodt_ic_256" xmlns="http://www.w3.org/2000/svg" width="256" height="256" viewBox="0 0 256 256"><title>editor_xodt_ic_256</title><rect id="padding-box" width="256" height="256" style="fill:none"/><path id="bg" d="M240,128.15c0,11.85,0,7.85,0,19.85l-92,92c-8,0-13.87,0-11.45 -0.05 -0.68,0 -0.55 0.05-8.55 0.05-3.52,0-7.87,0-8.55,0a281.79,281.79,0,0,1-48.4-4.76,83,83,0,0,1-21.55-8c-14-8.23-21.92-19.58-27.19-36.5a176.81,176.81,0,0,1-4.1-20c -0.14 -0.76-2-22.68-2.19-42.53h0v -0.29c0.24-19.86,2.07-41.78,2.22-42.55a176.78,176.78,0,0,1,4.09-20C27.58,48.4,35.52,37.05,49.48,28.83A83.64,83.64,0,0,1,71,20.8a250.63,250.63,0,0,1,48.41-4.75L128,16c3.52,0,7.87,0,8.55,0A251.43,251.43,0,0,1,185,20.8a83.43,83.43,0,0,1,21.55,8c14,8.22,21.91,19.55,27.18,36.48a176.78,176.78,0,0,1,4.09,20c0.15 0.78,2,22.7,2.2,42.55Z" style="fill:#13bcfe"/><path id="shape" d="M48,226.25C35,218.1,27.38,207,22.31,190.68a176.81,176.81,0,0,1-4.1-20c -0.14 -0.76-2-22.68-2.19-42.53h0v -0.29c0.24-19.86,2.07-41.78,2.22-42.55a176.78,176.78,0,0,1,4.09-20C27.38,49,35,37.89,48,29.75ZM237.78,85.31a176.78,176.78,0,0,0-4.09-20C228.61,49,221,37.89,208,29.75V180l32-32c0-12,0-8,0-19.85v -0.29C239.76,108,237.93,86.09,237.78,85.31Z" style="fill:#00a6ff"/><path id="fold" d="M222.64,149.51c0.45 -0.08,7.62 -0.92,17.36-1.51,0,0-92,92-92,92a270.65,270.65,0,0,1,4.13-32.72,91,91,0,0,1,8.78-23.57c9-15.28,21.37-24,39.88-29.72A193.2,193.2,0,0,1,222.64,149.51Z" style="fill:#7edcff"/><path id="icon" d="M176,154a4.06,4.06,0,0,1-4.13,4H84.13a4,4,0,1,1,0-8h87.74A4.06,4.06,0,0,1,176,154Zm-4-35H84a4,4,0,0,0,0,8h88a4,4,0,0,0,0-8ZM84,96h88a4,4,0,0,0,0-8H84a4,4,0,0,0,0,8Z" style="fill:#fff"/></svg>