<svg id="editor_ods_ic_256" xmlns="http://www.w3.org/2000/svg" width="256" height="256" viewBox="0 0 256 256"><title>editor_ods_ic_256</title><rect id="padding-box" width="256" height="256" style="fill:none"/><path id="bg" d="M224,240H32a16,16,0,0,1-16-16V32A16,16,0,0,1,32,16H224a16,16,0,0,1,16,16V224A16,16,0,0,1,224,240Z" style="fill:#04d1b6"/><path id="shape" d="M224,240H32a16,16,0,0,1-16-16V204H240v20A16,16,0,0,1,224,240Zm0-224H32A16,16,0,0,0,16,32V52H240V32A16,16,0,0,0,224,16Z" style="fill:#07bea2"/><path id="icon" d="M129,104H113a3,3,0,0,0-3,3v42a3,3,0,0,0,3,3h16a19,19,0,0,0,19-19V123A19,19,0,0,0,129,104Zm10,29a10,10,0,0,1-10,10h-9a1,1,0,0,1-1-1V114a1,1,0,0,1,1-1h9a10,10,0,0,1,10,10ZM80,104a20,20,0,0,0-20,20v8a20,20,0,0,0,40,0v-8A20,20,0,0,0,80,104Zm11,28a11,11,0,0,1-22,0v-8a11,11,0,0,1,22,0Zm105,5.82A14.21,14.21,0,0,1,181.76,152h-9.67a14.22,14.22,0,0,1-11.66-6.06,4.66,4.66,0,0,1 -0.34-4.58,4.38,4.38,0,0,1,7.78 -0.16,5.4,5.4,0,0,0,4.22,2.07h9.68a5.46,5.46,0,1,0,0-10.91h-9.52a14.18,14.18,0,1,1,0-28.36h9.69a14.22,14.22,0,0,1,11.65,6.06,4.7,4.7,0,0,1, 0.31,4.56,4.39,4.39,0,0,1-7.76 0.18,5.38,5.38,0,0,0-4.21-2.07h-9.68a5.46,5.46,0,0,0-4.87,2.68,5.4,5.4,0,0,0,0,5.54,5.49,5.49,0,0,0,4.87,2.69h9.51A14.21,14.21,0,0,1,196,137.82Z" style="fill:#fff"/></svg>