<svg id="editor_xlsx_ic_256" xmlns="http://www.w3.org/2000/svg" width="256" height="256" viewBox="0 0 256 256"><title>editor_xlsx_ic_256</title><rect id="padding-box" width="256" height="256" style="fill:none"/><path id="bg" d="M224,240H32a16,16,0,0,1-16-16V32A16,16,0,0,1,32,16H224a16,16,0,0,1,16,16V224A16,16,0,0,1,224,240Z" style="fill:#04d1b6"/><path id="shape" d="M240,32V52H16V32A16,16,0,0,1,32,16H224A16,16,0,0,1,240,32ZM16,224a16,16,0,0,0,16,16H224a16,16,0,0,0,16-16V204H16Z" style="fill:#07bea2"/><path id="icon" d="M133.77,128l24.42,38.52a4.87,4.87,0,1,1-8.22,5.2l-22-34.62-22,34.64a4.87,4.87,0,1,1-8.22-5.2L122.23,128,97.81,89.47a4.87,4.87,0,1,1,8.22-5.2l22,34.63,22-34.65a4.87,4.87,0,0,1,8.22,5.2Z" style="fill:#fff"/></svg>