<svg id="editor_xls_ic_256" xmlns="http://www.w3.org/2000/svg" width="256" height="256" viewBox="0 0 256 256"><title>editor_xls_ic_256</title><rect id="padding-box" width="256" height="256" style="fill:none"/><path id="bg" d="M224,240H32a16,16,0,0,1-16-16V32A16,16,0,0,1,32,16H224a16,16,0,0,1,16,16V224A16,16,0,0,1,224,240Z" style="fill:#4ec691"/><path id="shape" d="M240,32V52H16V32A16,16,0,0,1,32,16H224A16,16,0,0,1,240,32ZM16,224a16,16,0,0,0,16,16H224a16,16,0,0,0,16-16V204H16Z" style="fill:#47b887"/><path id="icon" d="M164,168a4,4,0,0,1-4,4H144a4,4,0,0,1,0-8h2l-18-28-18,28h2a4,4,0,0,1,0,8H96a4,4,0,0,1,0-8h4a1.62,1.62,0,0,0,0-1l23-35L100,93a1.54,1.54,0,0,0,0-1H96a4,4,0,0,1,0-8h16a4,4,0,0,1,0,8h-2l18,28,18-28h-2a4,4,0,0,1,0-8h16a4,4,0,0,1,0,8h-4a1.62,1.62,0,0,0,0,1l-23,35,23,35a1.54,1.54,0,0,0,0,1h4A4,4,0,0,1,164,168Z" style="fill:#fff"/></svg>